<svg xmlns="http://www.w3.org/2000/svg" viewBox="0 0 200 200" width="100%" height="100%">
  <defs>

    <filter id="textbookShadowBlur" x="-50%" y="-50%" width="200%" height="200%">
      <feGaussianBlur in="SourceGraphic" stdDeviation="12" />
    </filter>
    <style>

      svg {
        background: radial-gradient(circle at center, #ffffff 0%, #dddee0 100%);
        /* Ensure it covers the full viewport without being constrained by viewBox layout */
        width: 100vw;
        height: 100vh;
        margin: 0;
        padding: 0;
        overflow: hidden;
      }
    
      /* 1. The Credit Card levitating out of the smart wallet */
      .card-slide  {
      }
      @keyframes slideUp {
        0%, 10% { transform: translate(0px, 0px); opacity: 0.8; }
        25%, 75% { transform: translate(-15px, -30px); opacity: 1; } /* Slides up and out */
        90%, 100% { transform: translate(0px, 0px); opacity: 0.8; }
      }
      /* 2. The Gold Coins dropping and stacking (Compound Growth) */
      .coin  {
      }
      /* Staggering the coin drops */
      .coin-1 { animation-delay: 0.2s; } /* Bottom coin */
      .coin-2 { animation-delay: 0.6s; } /* Middle coin */
      .coin-3 { animation-delay: 1.0s; } /* Top coin */
      @keyframes dropStack {
        0% { transform: translateY(-100px); opacity: 0; }
        15% { transform: translateY(0px); opacity: 1; } /* Hits the stack with a bounce */
        85% { transform: translateY(0px); opacity: 1; } /* Rests */
        95%, 100% { transform: translateY(20px); opacity: 0; } /* Fades out to loop */
      }
      /* 3. The Digital Chip Pulse on the Credit Card */
      .chip-pulse  {
      }
      @keyframes neonPulse {
        0% { fill: #0ba360; }
        100% { fill: #3cba92; filter: drop-shadow(0px 0px 2px #0ba360); }
      }
      /* 4. Floor Shadows */
      .wallet-shadow  {
        transform-origin: 65px 165px;
      }
      .stack-shadow  {
        transform-origin: 140px 160px;
      }
      @keyframes shadowBreathe {
        0%, 10% { transform: scale(0.9); opacity: 0.2; }
        25%, 75% { transform: scale(1.05); opacity: 0.15; }
        90%, 100% { transform: scale(0.9); opacity: 0.2; }
      }
      @keyframes stackGrow {
        0%, 10% { transform: scale(0.5); opacity: 0; }
        30%, 85% { transform: scale(1); opacity: 0.25; }
        95%, 100% { transform: scale(0.5); opacity: 0; }
      }
      svg:hover .card-slide {
        animation: slideUp 5s cubic-bezier(0.45, 0, 0.55, 1) forwards;
      }

      svg:hover .coin {
        animation: dropStack 5s cubic-bezier(0.34, 1.56, 0.64, 1) forwards;
      }

      svg:hover .chip-pulse {
        animation: neonPulse 2s forwards alternate;
      }

      svg:hover .wallet-shadow {
        animation: shadowBreathe 5s ease-in-out forwards;
      }

      svg:hover .stack-shadow {
        animation: stackGrow 5s ease-in-out forwards;
      }

      </style>
    <linearGradient id="walletFront" x1="0%" y1="0%" x2="100%" y2="100%">
      <stop offset="0%" stop-color="#34495e"/>
      <stop offset="100%" stop-color="#2c3e50"/>
    </linearGradient>
    <linearGradient id="walletBack" x1="0%" y1="0%" x2="0%" y2="100%">
      <stop offset="0%" stop-color="#1a252f"/>
      <stop offset="100%" stop-color="#2c3e50"/>
    </linearGradient>
    <linearGradient id="cardGradient" x1="0%" y1="0%" x2="100%" y2="100%">
      <stop offset="0%" stop-color="#7579ff"/>
      <stop offset="50%" stop-color="#e0c3fc"/>
      <stop offset="100%" stop-color="#00f2fe"/>
    </linearGradient>
    <linearGradient id="goldTop" x1="0%" y1="0%" x2="100%" y2="100%">
      <stop offset="0%" stop-color="#fdfbfb"/>
      <stop offset="40%" stop-color="#f6a565"/>
      <stop offset="100%" stop-color="#da8d41"/>
    </linearGradient>
    <linearGradient id="goldEdge" x1="0%" y1="0%" x2="0%" y2="100%">
      <stop offset="0%" stop-color="#da8d41"/>
      <stop offset="50%" stop-color="#c28f1b"/>
      <stop offset="100%" stop-color="#8c640e"/>
    </linearGradient>
    <filter id="softShadow" x="-50%" y="-50%" width="200%" height="200%">
      <feGaussianBlur in="SourceAlpha" stdDeviation="3"/>
      <feOffset dx="-2" dy="5" result="offsetblur"/>
      <feComponentTransfer><feFuncA type="linear" slope="0.3"/></feComponentTransfer>
      <feMerge><feMergeNode/><feMergeNode in="SourceGraphic"/></feMerge>
    </filter>
  </defs>

  
  <polygon points="30,150 90,180 120,165 60,135" fill="#37474f" class="wallet-shadow" />
  <ellipse cx="140" cy="160" rx="30" ry="12" fill="#1a252f" class="stack-shadow" opacity="0.3" />
  <g filter="url(#softShadow)">
    <polygon points="55,100 105,125 105,160 55,135" fill="url(#walletBack)" />
    <g class="card-slide">
      <polygon points="45,95 90,118 90,148 45,125" fill="url(#cardGradient)" />
      <polygon points="90,118 92,117 92,147 90,148" fill="#fdfbfb" />
      <polygon points="45,95 90,118 92,117 47,94" fill="#ffffff" />
      <polygon points="55,115 65,120 65,125 55,120" fill="#37474f" />
      <polygon points="56,116 64,120 64,124 56,120" class="chip-pulse" />
      <line x1="50" y1="130" x2="80" y2="145" stroke="#ffffff" stroke-width="1.5" opacity="0.6" stroke-linecap="round" />
      <line x1="50" y1="135" x2="65" y2="142.5" stroke="#ffffff" stroke-width="1.5" opacity="0.4" stroke-linecap="round" />
    </g>
    <polygon points="40,115 95,142 95,172 40,145" fill="url(#walletFront)" />
    <line x1="43" y1="118" x2="92" y2="142" stroke="#1a252f" stroke-width="1" stroke-dasharray="2 2" opacity="0.6" />
    <line x1="43" y1="143" x2="92" y2="168" stroke="#1a252f" stroke-width="1" stroke-dasharray="2 2" opacity="0.6" />
    <line x1="92" y1="142" x2="92" y2="168" stroke="#1a252f" stroke-width="1" stroke-dasharray="2 2" opacity="0.6" />
    <polygon points="80,145 88,149 88,157 80,153" fill="#e0e0e0" />
    <polygon points="81,146 87,149 87,156 81,153" fill="#fdfbfb" />
  </g>
  <g filter="url(#softShadow)">
    <g class="coin coin-1">
      <path d="M 115 150 L 115 156 A 25 10 0 0 0 165 156 L 165 150 Z" fill="url(#goldEdge)" />
      <g stroke="#8c640e" stroke-width="0.5" opacity="0.5">
        <line x1="120" y1="151" x2="120" y2="157" /> <line x1="130" y1="154" x2="130" y2="160" />
        <line x1="140" y1="155" x2="140" y2="161" /> <line x1="150" y1="154" x2="150" y2="160" />
        <line x1="160" y1="151" x2="160" y2="157" />
      </g>
      <ellipse cx="140" cy="150" rx="25" ry="10" fill="url(#goldTop)" />
      <ellipse cx="140" cy="150" rx="20" ry="8" fill="none" stroke="#c28f1b" stroke-width="1" />
    </g>
    <g class="coin coin-2">
      <path d="M 115 138 L 115 144 A 25 10 0 0 0 165 144 L 165 138 Z" fill="url(#goldEdge)" />
      <g stroke="#8c640e" stroke-width="0.5" opacity="0.5">
        <line x1="120" y1="139" x2="120" y2="145" /> <line x1="130" y1="142" x2="130" y2="148" />
        <line x1="140" y1="143" x2="140" y2="149" /> <line x1="150" y1="142" x2="150" y2="148" />
        <line x1="160" y1="139" x2="160" y2="145" />
      </g>
      <ellipse cx="140" cy="138" rx="25" ry="10" fill="url(#goldTop)" />
      <ellipse cx="140" cy="138" rx="20" ry="8" fill="none" stroke="#c28f1b" stroke-width="1" />
    </g>
    <g class="coin coin-3">
      <path d="M 115 126 L 115 132 A 25 10 0 0 0 165 132 L 165 126 Z" fill="url(#goldEdge)" />
      <g stroke="#8c640e" stroke-width="0.5" opacity="0.5">
        <line x1="120" y1="127" x2="120" y2="133" /> <line x1="130" y1="130" x2="130" y2="136" />
        <line x1="140" y1="131" x2="140" y2="137" /> <line x1="150" y1="130" x2="150" y2="136" />
        <line x1="160" y1="127" x2="160" y2="133" />
      </g>
      <ellipse cx="140" cy="126" rx="25" ry="10" fill="url(#goldTop)" />
      <ellipse cx="140" cy="126" rx="20" ry="8" fill="none" stroke="#c28f1b" stroke-width="1" />
      <text x="140" y="130" font-family="sans-serif" font-size="12" font-weight="bold" fill="#d35400" text-anchor="middle" transform="scale(1, 0.8) translate(0, 32)">$</text>
      <ellipse cx="130" cy="123" rx="6" ry="2" fill="#ffffff" opacity="0.6" transform="rotate(-20 130 123)" />
    </g>
  </g>
</svg>
